<svg xmlns="http://www.w3.org/2000/svg" viewBox="0 -67.5 371 371"><path fill-rule="evenodd" fill="#141210" d="M130.92 233.24C130.73 233.21 129.03 233.10 127.12 233.01C124.61 232.88 123.15 232.72 121.79 232.43C120.76 232.21 119.32 231.91 118.58 231.77C115.42 231.17 113.96 230.82 113.37 230.52C113.02 230.34 112.25 230.11 111.66 230.00C111.07 229.89 110.32 229.69 110.00 229.56C109.68 229.42 108.59 229.01 107.58 228.66C106.58 228.30 105.30 227.78 104.75 227.51C104.20 227.24 102.80 226.57 101.65 226.01C100.49 225.46 99.15 224.74 98.67 224.42C98.19 224.10 97.74 223.83 97.67 223.83C97.49 223.83 94.35 221.87 93.92 221.50C93.73 221.34 93.36 221.09 93.08 220.95C92.26 220.54 85.55 215.50 82.82 213.25C81.93 212.52 80.70 211.50 80.07 211.00C79.45 210.50 77.88 209.18 76.57 208.08C75.27 206.98 73.63 205.63 72.92 205.08C72.21 204.53 71.06 203.60 70.36 203.00C67.69 200.74 63.95 198.04 61.17 196.37C57.77 194.33 56.59 193.71 53.92 192.57C53.18 192.25 52.17 191.78 51.67 191.52C51.16 191.26 50.45 190.99 50.08 190.92C49.72 190.86 49.08 190.67 48.67 190.50C47.44 190.00 44.50 189.20 43.21 189.01C42.55 188.91 41.62 188.68 41.14 188.49C39.99 188.03 37.71 187.85 33.31 187.84C30.12 187.83 29.66 187.80 29.36 187.54C29.16 187.37 28.74 186.45 28.36 185.33C27.36 182.38 26.94 181.37 25.93 179.53C23.79 175.60 20.46 171.27 15.64 166.14C9.99 160.13 5.98 154.87 4.80 151.92C3.26 148.07 3.16 147.70 2.98 145.04C2.86 143.29 2.86 141.68 2.98 139.87C3.17 137.10 3.10 137.39 4.74 132.69C4.97 132.02 5.31 131.26 5.50 131.01C5.68 130.75 5.91 130.33 6.00 130.08C6.23 129.47 8.30 126.04 8.51 125.91C8.61 125.85 8.87 125.50 9.10 125.13C9.68 124.22 11.24 122.32 12.63 120.82C13.83 119.53 14.17 119.04 14.17 118.58C14.17 118.42 13.66 117.76 13.04 117.11C10.11 114.02 7.11 109.94 6.13 107.69C5.94 107.27 5.64 106.70 5.46 106.45C5.28 106.19 5.03 105.66 4.91 105.28C4.79 104.90 4.34 103.61 3.92 102.42C3.20 100.36 3.15 100.12 3.01 97.67C2.92 96.17 2.91 94.04 2.99 92.58C3.13 90.10 3.14 90.06 4.07 87.58C4.58 86.21 5.27 84.66 5.59 84.14C5.91 83.62 6.17 83.15 6.17 83.09C6.17 82.96 7.24 81.42 8.65 79.50C9.54 78.30 11.66 75.80 13.75 73.51C17.70 69.17 20.88 65.53 22.01 64.05C23.54 62.04 25.83 58.56 25.83 58.24C25.83 58.14 26.06 57.71 26.33 57.28C26.87 56.44 27.09 55.88 28.32 52.33C29.23 49.70 29.20 49.75 29.89 49.38C30.33 49.15 31.15 49.08 34.75 48.98C38.31 48.88 39.33 48.80 40.47 48.52C41.23 48.32 42.52 48.09 43.33 48.00C44.15 47.91 45.33 47.65 45.95 47.43C46.57 47.21 47.98 46.75 49.07 46.41C50.16 46.06 51.36 45.61 51.74 45.39C52.11 45.18 52.53 45.00 52.67 45.00C52.93 45.00 56.55 43.19 58.58 42.05C60.23 41.13 62.32 39.80 64.17 38.52C65.04 37.91 66.05 37.21 66.42 36.96C67.29 36.35 67.81 35.97 69.47 34.67C70.23 34.07 71.78 32.87 72.90 32.00C74.03 31.13 75.85 29.67 76.95 28.75C81.87 24.66 86.73 20.77 88.50 19.53C89.10 19.11 89.82 18.57 90.11 18.32C91.17 17.42 97.13 13.51 98.00 13.15C98.23 13.05 98.64 12.81 98.92 12.60C99.19 12.39 100.47 11.71 101.75 11.09C103.03 10.47 104.43 9.79 104.86 9.57C105.28 9.35 106.07 9.03 106.61 8.85C107.14 8.67 108.27 8.27 109.11 7.95C109.95 7.62 111.25 7.24 112.01 7.08C112.76 6.93 113.83 6.63 114.40 6.42C114.96 6.21 115.87 5.99 116.42 5.93C116.97 5.86 118.32 5.60 119.42 5.34C122.31 4.67 125.03 4.20 126.75 4.08C127.58 4.02 129.11 3.83 130.17 3.65C134.87 2.87 141.03 2.83 145.41 3.57C146.70 3.79 148.46 4.02 149.33 4.08C151.02 4.20 155.05 4.96 156.74 5.48C157.30 5.66 158.21 5.85 158.76 5.92C159.30 5.98 160.24 6.25 160.83 6.50C161.43 6.76 162.22 7.03 162.58 7.09C163.27 7.22 165.23 7.94 166.42 8.50C166.78 8.67 167.31 8.86 167.58 8.93C167.86 8.99 168.50 9.26 169.00 9.51C169.50 9.77 170.78 10.39 171.83 10.89C175.50 12.62 174.90 12.30 178.33 14.31C180.49 15.57 183.57 17.55 185.31 18.78C185.59 18.98 185.98 19.05 186.62 19.02C186.82 19.01 187.44 18.60 187.99 18.10C189.19 17.03 193.48 14.43 196.41 12.99C196.78 12.81 197.35 12.51 197.67 12.34C198.80 11.72 204.03 9.43 205.17 9.05C205.58 8.91 206.55 8.55 207.33 8.25C208.94 7.63 210.15 7.24 211.00 7.08C211.32 7.01 212.03 6.78 212.57 6.55C213.11 6.33 214.17 6.03 214.93 5.90C215.69 5.77 216.61 5.55 216.97 5.43C218.03 5.05 222.62 4.20 224.17 4.08C224.95 4.03 226.71 3.78 228.08 3.54C230.44 3.13 230.90 3.10 236.08 3.10C241.09 3.09 241.76 3.13 243.56 3.47C244.64 3.67 246.55 3.94 247.81 4.07C250.29 4.32 252.88 4.82 254.83 5.42C255.52 5.64 256.58 5.89 257.19 5.97C257.79 6.06 258.60 6.30 258.97 6.49C259.35 6.68 260.13 6.95 260.70 7.08C261.28 7.21 262.39 7.60 263.17 7.93C263.95 8.27 265.00 8.68 265.50 8.85C266.00 9.02 266.57 9.25 266.75 9.36C266.93 9.47 268.32 10.19 269.83 10.96C275.73 13.96 281.06 17.70 290.00 25.07C296.58 30.50 300.84 33.99 302.08 34.96C302.82 35.53 303.68 36.21 304.00 36.46C304.31 36.71 305.06 37.26 305.66 37.67C306.26 38.09 307.12 38.69 307.58 39.02C308.72 39.81 312.41 42.00 312.62 42.00C312.71 42.00 313.04 42.17 313.36 42.39C314.05 42.86 318.70 45.00 319.03 45.00C319.16 45.00 319.56 45.16 319.92 45.35C320.58 45.70 321.91 46.14 324.67 46.91C325.45 47.13 326.36 47.43 326.69 47.57C327.03 47.71 328.08 47.90 329.02 47.99C329.97 48.08 331.39 48.31 332.17 48.51C333.33 48.80 334.27 48.88 337.33 48.95C339.40 49.00 341.24 49.10 341.44 49.18C341.72 49.28 341.93 49.74 342.41 51.28C343.06 53.34 344.04 55.79 344.51 56.50C344.66 56.73 345.13 57.55 345.55 58.33C347.11 61.19 351.20 66.37 355.44 70.83C359.75 75.38 363.90 80.61 364.97 82.83C365.13 83.15 365.39 83.62 365.55 83.86C365.91 84.38 366.30 85.39 367.19 88.08C367.78 89.87 367.87 90.37 368.03 92.68C368.28 96.43 368.06 99.04 367.28 101.33C365.53 106.51 364.07 109.01 360.41 113.08C358.05 115.71 357.17 117.08 357.17 118.13C357.17 118.73 357.29 118.94 358.21 119.95C360.96 122.95 363.07 125.95 364.79 129.31C365.94 131.56 366.49 133.08 367.33 136.22C368.24 139.65 368.21 144.06 367.25 147.28C365.42 153.36 362.97 156.93 354.25 166.16C351.64 168.93 348.08 173.27 346.92 175.11C346.61 175.60 345.75 177.02 344.66 178.85C344.41 179.28 344.11 179.92 344.00 180.27C343.89 180.63 343.66 181.14 343.50 181.42C343.24 181.86 342.57 183.86 341.96 186.00C341.78 186.66 341.64 186.81 340.83 187.25L339.92 187.75L334.83 187.85C329.89 187.96 328.88 188.05 327.67 188.56C327.35 188.69 326.42 188.92 325.61 189.07C324.80 189.23 323.30 189.65 322.28 190.02C321.25 190.39 320.06 190.79 319.63 190.91C319.20 191.03 318.63 191.29 318.35 191.49C318.08 191.68 317.57 191.94 317.22 192.06C316.51 192.31 313.18 194.00 311.50 194.96C308.53 196.65 301.68 201.51 298.11 204.45C297.09 205.29 295.38 206.68 294.31 207.53C293.24 208.38 290.68 210.43 288.63 212.08C282.47 217.02 281.39 217.83 276.46 221.24C274.00 222.95 266.54 227.00 265.86 227.00C265.72 227.00 265.29 227.19 264.90 227.41C263.80 228.06 258.58 229.74 256.87 229.99C256.20 230.09 255.27 230.32 254.79 230.51C253.92 230.85 252.55 231.14 248.00 231.92C246.67 232.15 245.02 232.44 244.33 232.58C243.65 232.71 240.71 232.95 237.82 233.09C233.00 233.34 232.12 233.34 227.55 233.10C224.61 232.95 222.03 232.73 221.31 232.57C220.64 232.43 219.26 232.17 218.25 231.99C214.93 231.42 212.60 230.89 211.50 230.46C210.90 230.23 210.05 229.99 209.61 229.92C209.17 229.86 208.45 229.66 208.03 229.47C207.60 229.29 206.84 229.00 206.33 228.83C204.13 228.09 203.47 227.83 202.78 227.43C202.38 227.19 201.95 227.00 201.82 227.00C201.57 227.00 199.28 225.91 195.67 224.08C194.57 223.53 191.65 221.87 190.83 221.34C189.24 220.30 186.81 218.70 186.19 218.27C185.73 217.95 185.21 217.76 184.68 217.71C183.95 217.64 183.82 217.68 183.23 218.20C182.27 219.05 179.36 221.00 179.05 221.00C178.96 221.00 178.59 221.21 178.23 221.46C177.62 221.90 176.70 222.40 173.33 224.12C171.42 225.10 167.96 226.63 166.82 226.99C166.31 227.15 165.71 227.40 165.49 227.54C164.94 227.90 159.29 229.76 158.11 229.98C157.58 230.08 156.80 230.31 156.37 230.51C155.58 230.85 153.18 231.40 149.75 232.00C148.74 232.17 147.43 232.43 146.83 232.57C146.24 232.71 144.40 232.90 142.75 233.00C139.62 233.19 131.50 233.36 130.92 233.24ZM151.25 173.33C154.76 171.63 156.55 168.72 156.79 164.33C156.90 162.15 156.28 159.46 155.32 158.04C153.33 155.09 150.98 153.83 147.42 153.83C145.65 153.83 144.42 154.07 143.13 154.66C141.19 155.56 139.67 157.11 138.65 159.25C137.85 160.92 137.63 165.07 138.19 167.65C138.56 169.35 140.69 172.16 142.12 172.83C142.56 173.04 143.12 173.35 143.37 173.53C144.06 174.02 145.04 174.15 147.50 174.11L149.75 174.06L151.25 173.33ZM210.98 174.00C211.90 173.88 212.43 173.70 213.03 173.32C213.98 172.70 214.17 172.22 213.77 171.38C213.50 170.82 213.46 170.80 212.79 170.90C211.54 171.07 206.89 171.21 206.12 171.10C203.99 170.78 201.67 168.03 201.67 165.82C201.67 164.86 201.81 164.83 208.27 164.83C211.50 164.83 214.26 164.79 214.41 164.73C215.14 164.45 215.31 163.23 214.99 160.66C214.66 158.06 213.00 155.64 210.74 154.50C209.82 154.03 209.49 153.95 207.94 153.88C204.97 153.72 203.19 154.29 201.30 155.99C200.23 156.96 199.41 158.21 198.74 159.92C198.32 160.98 198.27 161.32 198.21 163.84C198.14 166.48 198.15 166.65 198.58 167.92C199.12 169.53 199.70 170.47 200.87 171.62C201.88 172.61 204.05 173.81 205.16 174.00C206.25 174.18 209.55 174.18 210.98 174.00ZM260.44 173.41C261.99 172.56 262.59 171.96 263.29 170.58C263.78 169.61 263.88 169.24 263.89 168.33C263.90 166.21 262.41 164.13 260.00 162.92C259.40 162.62 258.58 162.27 258.17 162.16C257.34 161.92 256.02 161.04 255.50 160.38C254.98 159.72 255.04 158.35 255.61 157.66C256.56 156.53 258.42 156.20 260.25 156.83C261.57 157.29 262.07 157.26 262.49 156.73C262.96 156.12 262.94 155.26 262.44 154.75C261.81 154.13 260.81 153.92 258.32 153.92L256.07 153.92L254.78 154.55C252.88 155.49 252.21 156.43 251.58 159.04C251.43 159.63 252.06 161.74 252.59 162.44C253.15 163.18 255.66 164.82 256.63 165.07C257.47 165.30 259.04 166.21 259.53 166.77C259.92 167.21 260.17 168.45 260.02 169.25C259.71 170.87 259.00 171.26 256.33 171.23C254.94 171.22 254.21 171.14 253.67 170.93C252.34 170.42 252.22 170.42 251.67 170.97C251.08 171.56 250.98 172.46 251.46 172.86C252.73 173.94 253.75 174.17 256.94 174.09L259.30 174.04L260.44 173.41ZM122.64 173.82C123.05 173.68 123.20 173.49 123.34 172.99C123.45 172.56 123.49 167.91 123.46 159.09L123.42 145.84L123.05 145.48C122.79 145.22 122.42 145.09 121.77 145.04C120.96 144.97 120.81 145.01 120.43 145.39L120.00 145.82L120.00 159.54C120.00 173.80 119.99 173.64 120.67 173.88C121.10 174.04 122.10 174.01 122.64 173.82ZM178.53 173.82C179.08 173.57 179.80 172.56 180.02 171.76C180.12 171.39 180.50 170.37 180.87 169.50C181.24 168.63 181.67 167.47 181.83 166.92C182.00 166.37 182.36 165.48 182.65 164.94C182.93 164.41 183.17 163.86 183.17 163.74C183.17 163.61 183.53 162.59 183.98 161.46C184.43 160.34 184.85 159.23 184.91 159.00C184.97 158.77 185.27 158.06 185.58 157.42C186.19 156.18 186.45 154.91 186.18 154.51C185.98 154.20 184.02 154.06 183.54 154.31C183.04 154.58 182.18 156.18 181.83 157.47C181.67 158.08 181.19 159.57 180.77 160.78C180.35 161.99 180.00 163.08 180.00 163.20C180.00 163.32 179.79 163.83 179.53 164.33C179.27 164.84 178.96 165.66 178.85 166.17C178.64 167.14 177.86 168.75 177.59 168.75C177.50 168.75 177.34 168.56 177.23 168.33C176.43 166.61 176.09 165.78 175.84 164.84C175.37 163.13 174.01 159.18 173.49 158.06C173.23 157.50 172.97 156.75 172.91 156.39C172.62 154.80 171.91 154.17 170.43 154.17C169.05 154.17 168.59 154.48 168.75 155.31C168.81 155.64 169.07 156.40 169.33 157.00C169.59 157.60 169.85 158.35 169.92 158.67C169.98 158.99 170.20 159.55 170.41 159.92C170.75 160.51 171.34 162.08 172.84 166.42C173.10 167.15 173.50 168.12 173.74 168.57C173.97 169.02 174.17 169.48 174.17 169.60C174.17 169.84 175.05 172.17 175.44 172.95C175.59 173.24 175.94 173.59 176.23 173.74C176.84 174.03 177.98 174.08 178.53 173.82ZM232.63 173.60C232.89 173.35 232.93 172.67 233.00 167.20L233.08 161.08L233.73 160.00C234.09 159.40 234.54 158.74 234.73 158.53C235.25 157.95 236.58 157.33 237.54 157.21C238.71 157.08 239.00 156.74 239.00 155.54C239.00 154.91 238.90 154.44 238.73 154.18C238.48 153.83 238.36 153.80 237.43 153.87C236.19 153.97 235.27 154.42 234.26 155.41C233.21 156.45 232.78 156.43 232.42 155.33C232.08 154.33 231.72 154.10 230.65 154.21C229.23 154.34 229.33 153.60 229.33 163.58C229.33 168.46 229.38 172.70 229.44 173.00C229.52 173.39 229.69 173.60 230.07 173.77C230.75 174.08 232.26 173.98 232.63 173.60ZM145.49 171.10C143.27 170.51 141.33 167.19 141.33 163.99C141.33 161.61 142.59 158.59 143.99 157.62C144.88 156.99 146.37 156.50 147.35 156.50C147.79 156.50 148.56 156.65 149.06 156.84C150.48 157.37 151.34 158.24 152.27 160.12L153.08 161.74L153.07 164.00L153.07 166.25L152.33 167.73C151.36 169.65 150.01 170.91 148.67 171.17C147.53 171.38 146.44 171.36 145.49 171.10ZM202.12 161.82C201.68 161.56 201.77 160.69 202.35 159.52C203.00 158.22 203.80 157.42 205.08 156.81C206.30 156.23 207.28 156.19 208.59 156.68C209.84 157.15 210.52 157.78 211.12 159.04C211.82 160.50 211.93 161.08 211.59 161.59L211.33 162.00L206.87 161.99C204.16 161.99 202.30 161.92 202.12 161.82ZM277.42 140.59C278.15 139.86 277.90 137.64 277.05 137.32C276.80 137.23 243.15 137.17 190.59 137.17C106.43 137.17 104.53 137.17 104.15 137.48C103.82 137.75 103.75 137.98 103.70 139.05C103.64 140.15 103.67 140.34 103.98 140.65L104.33 141.00L190.67 141.00L277.02 141.00L277.42 140.59ZM218.16 129.34C222.27 128.13 224.83 125.39 226.27 120.67C226.73 119.16 226.75 118.93 226.75 116.00C226.75 113.07 226.72 112.84 226.27 111.42C225.11 107.77 223.36 105.57 219.79 103.27C218.98 102.75 217.93 102.14 217.45 101.91C215.99 101.22 214.44 100.21 213.12 99.09C211.32 97.56 210.19 94.82 210.38 92.42C210.67 88.88 212.82 86.28 215.86 85.81C217.77 85.51 219.83 85.80 221.48 86.60C223.16 87.41 223.77 87.43 224.28 86.69C224.72 86.04 224.96 85.28 225.11 84.05C225.25 82.83 224.96 82.45 223.28 81.67C222.11 81.13 221.59 81.00 219.58 80.75C217.29 80.46 217.21 80.46 215.12 80.80C212.83 81.18 211.99 81.53 210.22 82.87C209.28 83.58 207.92 85.15 207.47 86.03C205.93 89.10 205.99 88.89 205.79 91.35C205.65 93.08 205.65 94.19 205.79 95.76C205.97 97.75 206.02 97.93 206.76 99.41C208.48 102.83 210.67 104.91 214.58 106.85C217.33 108.21 219.12 109.53 220.23 111.01C220.66 111.57 221.00 112.11 221.00 112.21C221.00 112.31 221.21 112.80 221.46 113.32C221.89 114.20 221.92 114.37 221.91 116.58L221.91 118.92L221.27 120.25C220.15 122.58 218.95 123.69 216.86 124.34C214.13 125.18 210.18 124.39 207.16 122.39C206.20 121.76 206.05 121.90 205.42 124.06C205.27 124.59 205.10 125.42 205.05 125.90C204.97 126.65 205.01 126.83 205.36 127.20C206.23 128.16 208.75 129.15 212.08 129.84C213.43 130.12 216.29 129.89 218.16 129.34ZM123.65 128.88C124.00 128.59 124.00 128.52 124.04 118.44L124.08 108.30L124.48 107.99C124.85 107.68 125.21 107.67 130.95 107.67C134.59 107.67 137.14 107.60 137.33 107.50C137.78 107.26 138.00 106.44 138.00 105.02C138.00 103.37 137.77 102.53 137.28 102.41C137.08 102.36 134.22 102.31 130.92 102.29C127.62 102.27 124.79 102.19 124.63 102.11C124.04 101.82 123.98 100.94 124.03 94.06C124.08 87.80 124.10 87.35 124.39 87.02C124.70 86.69 124.88 86.68 131.43 86.63C139.41 86.57 138.84 86.73 138.96 84.52C139.06 82.93 138.91 81.76 138.56 81.42C138.19 81.05 120.07 81.04 119.57 81.40C119.26 81.64 119.25 82.09 119.21 105.01C119.17 123.26 119.21 128.43 119.37 128.62C119.71 129.04 120.19 129.15 121.77 129.16C122.99 129.16 123.37 129.11 123.65 128.88ZM151.70 128.87C151.87 128.70 151.93 126.57 152.00 118.81L152.08 108.97L152.48 108.65C153.37 107.93 158.07 108.42 159.77 109.42C160.68 109.95 161.80 111.31 162.30 112.48C162.98 114.08 163.66 116.68 163.83 118.33C164.06 120.54 164.16 121.10 164.53 122.16C164.70 122.67 164.96 123.88 165.09 124.86C165.33 126.73 165.82 128.40 166.26 128.83C166.58 129.15 169.95 129.30 170.48 129.01C170.94 128.76 170.94 128.03 170.49 127.15C170.28 126.74 170.05 125.74 169.90 124.63C169.77 123.62 169.56 122.40 169.43 121.93C169.30 121.47 169.14 120.75 169.08 120.33C169.02 119.92 168.80 118.80 168.58 117.83C168.37 116.87 168.15 115.50 168.08 114.79C168.01 113.94 167.84 113.25 167.59 112.78C167.38 112.38 167.09 111.65 166.94 111.15C166.62 110.06 165.55 108.39 164.48 107.31C163.56 106.39 163.56 106.06 164.47 105.36C166.99 103.44 168.25 101.62 169.27 98.42C169.72 96.99 169.75 96.76 169.75 93.92C169.75 91.08 169.72 90.84 169.27 89.42C167.98 85.35 166.12 83.26 162.42 81.72L160.92 81.10L156.53 81.03C150.77 80.95 148.79 81.21 147.71 82.21L147.33 82.56L147.33 105.41C147.33 130.21 147.28 128.86 148.21 129.06C148.98 129.22 151.48 129.09 151.70 128.87ZM198.45 128.79C198.69 128.55 198.76 128.14 198.81 126.67C198.86 124.90 198.85 124.83 198.44 124.42L198.02 124.00L190.94 124.00C184.23 124.00 183.85 123.98 183.48 123.68L183.08 123.36L183.03 115.89C183.01 111.78 183.03 108.18 183.08 107.88C183.28 106.80 183.06 106.83 189.91 106.83C197.50 106.83 196.89 107.05 196.97 104.39C197.02 102.74 197.00 102.54 196.67 102.12L196.31 101.67L190.07 101.67C184.13 101.67 183.82 101.65 183.51 101.35C183.02 100.86 182.98 100.08 183.03 93.48C183.08 87.74 183.10 87.35 183.40 87.02C183.71 86.67 183.82 86.67 190.45 86.67L197.18 86.67L197.59 86.26C197.98 85.87 198.00 85.75 198.00 83.88C198.00 82.36 197.94 81.82 197.74 81.54L197.48 81.17L188.26 81.17C179.72 81.17 179.01 81.19 178.69 81.46L178.33 81.75L178.33 105.01C178.32 117.80 178.37 128.39 178.42 128.54C178.48 128.69 178.73 128.89 178.97 128.98C179.25 129.08 182.92 129.13 188.79 129.11C197.53 129.09 198.17 129.06 198.45 128.79ZM239.59 128.76L240.00 128.35L240.00 117.96C240.00 108.83 240.03 107.53 240.26 107.20L240.52 106.83L248.47 106.84C252.84 106.84 256.50 106.89 256.60 106.96C257.14 107.32 257.17 107.80 257.17 118.12C257.17 126.72 257.21 128.49 257.40 128.76C257.60 129.03 257.90 129.09 259.44 129.14C261.06 129.19 261.30 129.17 261.67 128.87L262.08 128.53L262.13 106.31C262.16 94.08 262.14 83.54 262.08 82.87C262.01 82.15 261.87 81.56 261.72 81.41C261.38 81.07 258.04 81.06 257.57 81.40C257.26 81.63 257.25 81.98 257.17 91.08L257.08 100.53L256.69 100.85C256.32 101.15 255.93 101.17 248.51 101.17C242.06 101.17 240.68 101.13 240.41 100.93C240.09 100.70 240.08 100.35 240.00 91.17C239.92 81.98 239.91 81.63 239.59 81.40C239.14 81.07 235.86 81.07 235.41 81.40C235.09 81.64 235.08 82.09 235.04 104.99L235.00 128.35L235.41 128.76C235.79 129.14 235.93 129.17 237.50 129.17C239.06 129.17 239.21 129.14 239.59 128.76ZM152.55 103.54C152.44 103.47 152.27 103.20 152.18 102.94C151.95 102.35 151.93 87.37 152.16 86.77C152.45 86.00 152.84 85.92 156.25 85.92L159.42 85.92L160.79 86.64C162.57 87.58 163.38 88.48 164.29 90.54L165.00 92.14L165.00 94.59L165.00 97.04L164.24 98.73C163.13 101.18 161.60 102.65 159.44 103.32C158.47 103.61 157.88 103.67 155.52 103.66C154.00 103.66 152.66 103.60 152.55 103.54ZM194.59 71.09C196.57 70.84 199.28 70.07 199.82 69.60C199.96 69.48 200.35 69.24 200.67 69.08C201.63 68.60 203.46 67.04 204.41 65.89C205.75 64.27 206.87 61.94 207.34 59.83C208.06 56.56 207.73 52.14 206.71 51.33C206.34 51.04 206.03 51.00 204.10 51.00C201.61 51.00 200.26 51.31 197.42 52.53C195.17 53.50 193.06 55.27 191.42 57.56C190.99 58.17 190.52 58.67 190.39 58.67C190.25 58.67 189.45 57.97 188.61 57.12C187.03 55.51 185.02 54.16 183.84 53.91C183.52 53.85 182.92 53.64 182.51 53.47C182.09 53.29 181.43 53.13 181.04 53.11C180.44 53.09 180.25 53.17 179.74 53.68C179.22 54.20 179.09 54.52 178.66 56.26C178.01 58.90 178.01 60.32 178.65 62.67C179.20 64.67 180.17 66.31 181.69 67.78C184.05 70.06 186.55 71.04 190.50 71.22C191.10 71.25 191.81 71.28 192.09 71.30C192.37 71.32 193.49 71.22 194.59 71.09ZM195.12 67.91C194.72 67.49 195.21 66.84 199.32 62.25C201.89 59.38 202.05 59.03 201.18 58.15C200.84 57.82 200.53 57.67 200.15 57.67C199.49 57.67 199.51 57.65 194.45 63.46C192.75 65.41 192.27 65.70 192.07 64.91C191.91 64.28 192.15 62.71 192.60 61.53C193.18 59.98 194.05 58.67 195.39 57.32C196.41 56.30 196.86 55.99 198.66 55.12C200.75 54.11 200.75 54.10 202.50 54.03C204.14 53.97 204.27 53.99 204.58 54.33C204.88 54.66 204.91 54.92 204.90 56.48C204.85 61.29 202.29 65.32 198.05 67.28C196.84 67.84 195.37 68.16 195.12 67.91ZM184.58 67.30C182.76 66.00 181.43 64.20 180.83 62.17C180.18 60.01 180.40 56.92 181.27 56.05C181.79 55.52 182.46 55.63 184.31 56.56C185.37 57.08 185.94 57.51 186.71 58.33C187.26 58.93 187.79 59.60 187.90 59.83C188.00 60.06 188.31 60.62 188.58 61.08C189.06 61.88 189.08 62.01 189.08 63.79C189.08 65.38 189.04 65.70 188.78 65.95C188.49 66.24 188.46 66.24 188.22 65.92C188.01 65.63 186.41 62.71 185.02 60.08C184.63 59.35 184.51 59.24 183.99 59.20C183.31 59.14 183.05 59.36 182.90 60.10C182.83 60.49 183.06 61.08 184.08 63.05C184.78 64.41 185.54 65.79 185.76 66.12C185.98 66.44 186.17 66.93 186.17 67.19C186.17 67.62 186.11 67.67 185.62 67.66C185.33 67.66 184.86 67.50 184.58 67.30Z"/></svg>